<!--?xml version="1.0" encoding="utf-8"?-->
<!-- Generator: Adobe Illustrator 18.1.1, SVG Export Plug-In . SVG Version: 6.00 Build 0)  -->

<svg version="1.1" id="_x32_" xmlns="http://www.w3.org/2000/svg" xmlns:xlink="http://www.w3.org/1999/xlink" x="0px" y="0px" viewBox="0 0 512 512" style="width: 256px; height: 256px; opacity: 1;" xml:space="preserve">
<style type="text/css">
	.st0{fill:#4B4B4B;}
</style>
<g>
	<path class="st0" d="M259.031,156.638c-0.009-8.693-0.009-16.24,1.061-23.4l-6.258,7.169
		c-10.95,12.627-38.637,20.788-61.835,18.237c-23.215-2.561-33.138-14.859-22.179-27.494l82.473-86.306
		c1.601-1.684,2.055-4.161,1.138-6.301c-0.91-2.123-3.016-3.521-5.341-3.521h-13.283c-3.892,0-7.614,1.55-10.336,4.33
		l-71.548,72.499c-14.681,15.365-13.999,23.898-13.999,47.802c0,17.066,0,276.892,0,276.892c0,20.494,25.758,37.417,48.964,39.96
		c23.207,2.57,54.996-5.61,65.946-18.228l7.287-8.474c-1.306-4.228-2.089-8.642-2.089-13.258V156.638z" style="fill: rgb(166, 16, 16);"></path>
	<path class="st0" d="M120.113,156.638c-0.009-8.693-0.009-16.24,1.062-23.4l-6.267,7.169
		c-10.95,12.627-38.629,20.788-61.835,18.237c-23.207-2.561-33.138-14.859-22.179-27.494l82.481-86.306
		c1.591-1.684,2.054-4.161,1.137-6.301c-0.91-2.123-3.016-3.521-5.34-3.521H95.879c-3.883,0-7.597,1.55-10.326,4.33l-71.548,72.499
		c-14.682,15.365-14,23.898-14,47.802c0,17.066,0,276.892,0,276.892c0,20.494,25.75,37.417,48.965,39.96
		c23.197,2.57,54.988-5.61,65.938-18.228l7.303-8.474c-1.314-4.228-2.098-8.642-2.098-13.258V156.638z" style="fill: rgb(166, 16, 16);"></path>
	<path class="st0" d="M506.197,35.022h-14.379c-4.195,0-8.188,1.82-10.951,4.978l-87.51,100.406
		c-10.95,12.627-38.638,20.788-61.835,18.237c-23.215-2.561-33.137-14.859-22.179-27.494l82.473-86.306
		c1.601-1.684,2.055-4.161,1.145-6.301c-0.918-2.123-3.024-3.521-5.34-3.521H374.33c-3.883,0-7.607,1.55-10.336,4.33l-71.548,72.499
		c-14.682,15.365-13.999,23.898-13.999,47.802c0,17.066,0,276.892,0,276.892c0,20.494,25.758,37.417,48.964,39.96
		c23.214,2.57,54.996-5.61,65.946-18.228L501.454,332.72c6.806-7.918,10.546-17.992,10.546-28.42V40.826
		C512,37.625,509.397,35.022,506.197,35.022z" style="fill: rgb(166, 16, 16);"></path>
</g>
</svg>
