<!--?xml version="1.0" encoding="utf-8"?-->
<!-- Generator: Adobe Illustrator 18.1.1, SVG Export Plug-In . SVG Version: 6.00 Build 0)  -->

<svg version="1.1" id="_x32_" xmlns="http://www.w3.org/2000/svg" xmlns:xlink="http://www.w3.org/1999/xlink" x="0px" y="0px" viewBox="0 0 512 512" style="width: 256px; height: 256px; opacity: 1;" xml:space="preserve">
<style type="text/css">
	.st0{fill:#4B4B4B;}
</style>
<g>
	<path class="st0" d="M505.888,212.777l-69.517-19.617l41.871-53.348c1.524-1.938,2.121-4.442,1.62-6.844
		c-0.494-2.416-2.004-4.479-4.162-5.672L309.44,35.348c-1.246-0.685-2.652-1.053-4.059-1.053c-2.593,0-4.994,1.172-6.586,3.219
		l-42.792,54.49l-42.792-54.49c-1.606-2.047-4.007-3.211-6.593-3.211c-1.414,0-2.814,0.361-4.051,1.046L36.29,127.297
		c-2.15,1.193-3.668,3.256-4.155,5.672c-0.501,2.417,0.096,4.921,1.621,6.844l41.871,53.341L6.124,212.763
		c-3.3,0.928-5.679,3.713-6.07,7.116c-0.383,3.388,1.297,6.645,4.28,8.295l79.712,44.081v106.623c0,3.035,1.658,5.848,4.332,7.322
		l163.566,90.46c1.23,0.686,2.63,1.046,4.051,1.046c1.422,0,2.829-0.36,4.059-1.046l163.566-90.446
		c2.674-1.481,4.339-4.287,4.339-7.337V272.254l79.705-44.081c2.991-1.65,4.67-4.906,4.28-8.295
		C511.554,216.475,509.174,213.691,505.888,212.777z M307.929,55.282l148.921,82.365l-42.424,54.026l-148.913-82.365L307.929,55.282
		z M55.148,137.647l148.921-82.365l42.417,54.026L97.564,191.665L55.148,137.647z M33.955,223.798l61.193-17.267l144.434,79.86
		l-61.208,17.275L33.955,223.798z M249.712,454.663L102.22,373.101V275.93l74.586,41.245l72.906-20.575V454.663z M256.003,281.101
		l-147.072-81.333l147.072-81.34l147.079,81.34L256.003,281.101z M409.778,373.101l-147.484,81.562V296.6l72.898,20.575
		l74.586-41.245V373.101z M333.623,303.665l-61.201-17.275l144.42-79.86l61.208,17.267L333.623,303.665z" style="fill: rgb(166, 16, 16);"></path>
</g>
</svg>
