<!--?xml version="1.0" encoding="utf-8"?-->
<!-- Generator: Adobe Illustrator 18.1.1, SVG Export Plug-In . SVG Version: 6.00 Build 0)  -->

<svg version="1.1" id="_x32_" xmlns="http://www.w3.org/2000/svg" xmlns:xlink="http://www.w3.org/1999/xlink" x="0px" y="0px" viewBox="0 0 512 512" style="width: 256px; height: 256px; opacity: 1;" xml:space="preserve">
<style type="text/css">
	.st0{fill:#4B4B4B;}
</style>
<g>
	<path class="st0" d="M512,262.56l-104.245,14.103l43.066-189.536L295.469,213.175L199.622,73.4l-35.515,158.797L7.946,164.074
		l102.192,197.439L0,438.6h156.733H488.09l-42.409-64.486L512,262.56z M397.262,415.02l-23.097-24.877l39.287-62.859l-75.958,13.098
		l19.643-92.985l-70.716,74.646l-51.074-74.646l-11.786,90.36l-86.431-47.144l51.073,94.289l-58.358,30.125H74.802l65.752-46.039
		L59.426,212.254l121.451,52.976l29.93-133.837l79.667,116.181l122.262-99.192l-35.497,156.181l89.57-12.093l-48.92,82.272
		l26.484,40.278H397.262z" style="fill: rgb(166, 16, 16);"></path>
</g>
</svg>
