<?xml version="1.0" encoding="UTF-8"?><svg id="contents" xmlns="http://www.w3.org/2000/svg" viewBox="0 0 489.58 570"><path d="m244.66,82.37c20.04,0,85.41,7.85,85.41,108.89,0,95.31,5.92,121.3,37.29,163.62,14.32,19.33,25.73,31.21,34.06,39.89,4.04,4.21,6.8,7.12,8.69,9.41l49.6,49.6v-37.49c0-26.49-11.24-38.2-25.47-53.02-7.9-8.23-17.73-18.47-30.33-35.47-22-29.69-28.34-42.44-28.34-136.54s-43.72-133.86-91.79-148.57c.1-1.13.16-2.26.16-3.42,0-21.69-17.58-39.27-39.27-39.27s-39.27,17.58-39.27,39.27c0,1.15.06,2.29.16,3.41-32.94,10.09-63.84,33.99-80.03,76.92l36.8,36.8c13.16-68.08,64.9-74.04,82.33-74.04Z" style="fill: rgb(255, 255, 255);" /><path d="m48.25,75.76L0,124.01l112.99,112.99c-2.24,53.85-9.79,66.79-27.58,90.8-12.6,17-22.43,27.24-30.33,35.47-14.23,14.83-25.47,26.53-25.47,53.02v65.51h328.18l83.53,83.53,48.25-48.25L48.25,75.76Zm26.85,360.56v-20.02c0-7.88.48-8.69,12.8-21.52,8.33-8.68,19.73-20.56,34.06-39.89,18.59-25.09,28.24-44.45,33.02-75.9l157.33,157.33H75.1Z" style="fill: rgb(255, 255, 255);" /><path d="m190.6,515.12c0,.27-.02.53-.02.8,0,29.87,24.21,54.08,54.08,54.08s54.08-24.21,54.08-54.08c0-.27-.02-.53-.02-.8h-108.11Z" style="fill: rgb(255, 255, 255);" /></svg>
