<?xml version="1.0" encoding="UTF-8"?><svg id="contents" xmlns="http://www.w3.org/2000/svg" viewBox="0 0 570 428.19"><polygon points="113.23 428.19 113.18 389.54 190.49 278.17 113.22 278.17 113.22 238.32 241.84 238.32 241.84 276.76 162.51 388.33 241.84 388.33 241.84 428.19 113.23 428.19" style="fill: rgb(166 16 16);" /><polygon points="223.62 166.95 294.33 166.95 294.33 428.19 374.86 428.19 374.86 0 223.62 166.95" style="fill: rgb(166 16 16);" /><polygon points="570 261.23 499.29 261.23 499.29 0 418.76 0 418.76 428.19 570 261.23" style="fill: rgb(166 16 16);" /><path d="m59.09,145.27h59.34s14.85,46.32,14.85,46.32h44.24S116.11,0,116.11,0h-54.7L0,191.59h44.24s14.85-46.32,14.85-46.32Zm29.67-92.57l17.75,55.38h-35.5l17.75-55.38Z" style="fill: rgb(166 16 16);" /></svg>